<?xml version="1.0" encoding="UTF-8" standalone="no"?><svg xmlns="http://www.w3.org/2000/svg" xmlns:xlink="http://www.w3.org/1999/xlink" contentScriptType="application/ecmascript" contentStyleType="text/css" height="1367px" preserveAspectRatio="none" style="width:1707px;height:1367px;" version="1.1" viewBox="0 0 1707 1367" width="1707px" zoomAndPan="magnify"><defs><filter height="300%" id="f1k4rqxzmx1g3m" width="300%" x="-1" y="-1"><feGaussianBlur result="blurOut" stdDeviation="2.0"/><feColorMatrix in="blurOut" result="blurOut2" type="matrix" values="0 0 0 0 0 0 0 0 0 0 0 0 0 0 0 0 0 0 .4 0"/><feOffset dx="4.0" dy="4.0" in="blurOut2" result="blurOut3"/><feBlend in="SourceGraphic" in2="blurOut3" mode="normal"/></filter></defs><g><text fill="#000000" font-family="sans-serif" font-size="14" font-weight="bold" lengthAdjust="spacingAndGlyphs" textLength="230" x="739.5" y="22.9951">1.0.0 Get Participant Position</text><rect fill="#FFFFE0" height="1322.5781" style="stroke: #A80036; stroke-width: 1.0;" width="1008" x="646" y="34.2969"/><text fill="#000000" font-family="sans-serif" font-size="13" font-weight="bold" lengthAdjust="spacingAndGlyphs" textLength="119" x="1090.5" y="46.3638">Central Services</text><rect fill="#FFFFFF" filter="url(#f1k4rqxzmx1g3m)" height="1148.8516" style="stroke: #A80036; stroke-width: 1.0;" width="10" x="87" y="125.7266"/><rect fill="#FFFFFF" filter="url(#f1k4rqxzmx1g3m)" height="1103.5859" style="stroke: #A80036; stroke-width: 1.0;" width="10" x="712" y="170.9922"/><rect fill="#FFFFFF" filter="url(#f1k4rqxzmx1g3m)" height="1082.4531" style="stroke: #A80036; stroke-width: 1.0;" width="10" x="943" y="200.125"/><rect fill="#FFFFFF" filter="url(#f1k4rqxzmx1g3m)" height="135.6641" style="stroke: #A80036; stroke-width: 1.0;" width="10" x="1276" y="310.6563"/><rect fill="#FFFFFF" filter="url(#f1k4rqxzmx1g3m)" height="135.6641" style="stroke: #A80036; stroke-width: 1.0;" width="10" x="1276" y="678.4531"/><rect fill="#FFFFFF" filter="url(#f1k4rqxzmx1g3m)" height="77.3984" style="stroke: #A80036; stroke-width: 1.0;" width="10" x="1597" y="339.7891"/><rect fill="#FFFFFF" filter="url(#f1k4rqxzmx1g3m)" height="77.3984" style="stroke: #A80036; stroke-width: 1.0;" width="10" x="1597" y="707.5859"/><rect fill="#FFFFFF" filter="url(#f1k4rqxzmx1g3m)" height="1141.8516" style="stroke: #000000; stroke-width: 2.0;" width="1683" x="13" y="132.7266"/><rect fill="#FFFFFF" filter="url(#f1k4rqxzmx1g3m)" height="1010.3203" style="stroke: #000000; stroke-width: 2.0;" width="1663" x="23" y="257.2578"/><rect fill="#FFFFFF" height="398.0625" style="stroke: none; stroke-width: 1.0;" width="1663" x="23" y="627.3828"/><rect fill="#FFFFFF" height="242.1328" style="stroke: none; stroke-width: 1.0;" width="1663" x="23" y="1025.4453"/><line style="stroke: #A80036; stroke-width: 1.0; stroke-dasharray: 5.0,5.0;" x1="92" x2="92" y1="115.7266" y2="1291.5781"/><line style="stroke: #A80036; stroke-width: 1.0; stroke-dasharray: 5.0,5.0;" x1="717" x2="717" y1="115.7266" y2="1291.5781"/><line style="stroke: #A80036; stroke-width: 1.0; stroke-dasharray: 5.0,5.0;" x1="947.5" x2="947.5" y1="115.7266" y2="1291.5781"/><line style="stroke: #A80036; stroke-width: 1.0; stroke-dasharray: 5.0,5.0;" x1="1280.5" x2="1280.5" y1="115.7266" y2="1291.5781"/><line style="stroke: #A80036; stroke-width: 1.0; stroke-dasharray: 5.0,5.0;" x1="1602" x2="1602" y1="115.7266" y2="1291.5781"/><text fill="#000000" font-family="sans-serif" font-size="14" lengthAdjust="spacingAndGlyphs" textLength="112" x="33" y="112.4248">HUB OPERATOR</text><ellipse cx="92" cy="83.4297" fill="#FEFECE" filter="url(#f1k4rqxzmx1g3m)" rx="12" ry="12" style="stroke: #A80036; stroke-width: 2.0;"/><line style="stroke: #A80036; stroke-width: 2.0;" x1="80" x2="104" y1="97.4297" y2="97.4297"/><text fill="#000000" font-family="sans-serif" font-size="14" lengthAdjust="spacingAndGlyphs" textLength="112" x="33" y="1303.5732">HUB OPERATOR</text><ellipse cx="92" cy="1322.875" fill="#FEFECE" filter="url(#f1k4rqxzmx1g3m)" rx="12" ry="12" style="stroke: #A80036; stroke-width: 2.0;"/><line style="stroke: #A80036; stroke-width: 2.0;" x1="80" x2="104" y1="1336.875" y2="1336.875"/><text fill="#000000" font-family="sans-serif" font-size="14" lengthAdjust="spacingAndGlyphs" textLength="128" x="650" y="112.4248">Central Service API</text><path d="M696.5,71.4297 L696.5,95.4297 M696.5,83.4297 L713.5,83.4297 " fill="none" filter="url(#f1k4rqxzmx1g3m)" style="stroke: #A80036; stroke-width: 2.0;"/><ellipse cx="725.5" cy="83.4297" fill="#FEFECE" filter="url(#f1k4rqxzmx1g3m)" rx="12" ry="12" style="stroke: #A80036; stroke-width: 2.0;"/><text fill="#000000" font-family="sans-serif" font-size="14" lengthAdjust="spacingAndGlyphs" textLength="128" x="650" y="1303.5732">Central Service API</text><path d="M696.5,1310.875 L696.5,1334.875 M696.5,1322.875 L713.5,1322.875 " fill="none" filter="url(#f1k4rqxzmx1g3m)" style="stroke: #A80036; stroke-width: 2.0;"/><ellipse cx="725.5" cy="1322.875" fill="#FEFECE" filter="url(#f1k4rqxzmx1g3m)" rx="12" ry="12" style="stroke: #A80036; stroke-width: 2.0;"/><text fill="#000000" font-family="sans-serif" font-size="14" lengthAdjust="spacingAndGlyphs" textLength="129" x="880.5" y="112.4248">Participant Handler</text><ellipse cx="948" cy="83.4297" fill="#FEFECE" filter="url(#f1k4rqxzmx1g3m)" rx="12" ry="12" style="stroke: #A80036; stroke-width: 2.0;"/><polygon fill="#A80036" points="944,71.4297,950,66.4297,948,71.4297,950,76.4297,944,71.4297" style="stroke: #A80036; stroke-width: 1.0;"/><text fill="#000000" font-family="sans-serif" font-size="14" lengthAdjust="spacingAndGlyphs" textLength="129" x="880.5" y="1303.5732">Participant Handler</text><ellipse cx="948" cy="1322.875" fill="#FEFECE" filter="url(#f1k4rqxzmx1g3m)" rx="12" ry="12" style="stroke: #A80036; stroke-width: 2.0;"/><polygon fill="#A80036" points="944,1310.875,950,1305.875,948,1310.875,950,1315.875,944,1310.875" style="stroke: #A80036; stroke-width: 1.0;"/><text fill="#000000" font-family="sans-serif" font-size="14" lengthAdjust="spacingAndGlyphs" textLength="109" x="1223.5" y="112.4248">Position Facade</text><ellipse cx="1281" cy="83.4297" fill="#FEFECE" filter="url(#f1k4rqxzmx1g3m)" rx="12" ry="12" style="stroke: #A80036; stroke-width: 2.0;"/><line style="stroke: #A80036; stroke-width: 2.0;" x1="1269" x2="1293" y1="97.4297" y2="97.4297"/><text fill="#000000" font-family="sans-serif" font-size="14" lengthAdjust="spacingAndGlyphs" textLength="109" x="1223.5" y="1303.5732">Position Facade</text><ellipse cx="1281" cy="1322.875" fill="#FEFECE" filter="url(#f1k4rqxzmx1g3m)" rx="12" ry="12" style="stroke: #A80036; stroke-width: 2.0;"/><line style="stroke: #A80036; stroke-width: 2.0;" x1="1269" x2="1293" y1="1336.875" y2="1336.875"/><text fill="#000000" font-family="sans-serif" font-size="14" lengthAdjust="spacingAndGlyphs" textLength="90" x="1554" y="112.4248">Central Store</text><path d="M1584,63.4297 C1584,53.4297 1602,53.4297 1602,53.4297 C1602,53.4297 1620,53.4297 1620,63.4297 L1620,89.4297 C1620,99.4297 1602,99.4297 1602,99.4297 C1602,99.4297 1584,99.4297 1584,89.4297 L1584,63.4297 " fill="#FEFECE" filter="url(#f1k4rqxzmx1g3m)" style="stroke: #000000; stroke-width: 1.5;"/><path d="M1584,63.4297 C1584,73.4297 1602,73.4297 1602,73.4297 C1602,73.4297 1620,73.4297 1620,63.4297 " fill="none" style="stroke: #000000; stroke-width: 1.5;"/><text fill="#000000" font-family="sans-serif" font-size="14" lengthAdjust="spacingAndGlyphs" textLength="90" x="1554" y="1303.5732">Central Store</text><path d="M1584,1316.875 C1584,1306.875 1602,1306.875 1602,1306.875 C1602,1306.875 1620,1306.875 1620,1316.875 L1620,1342.875 C1620,1352.875 1602,1352.875 1602,1352.875 C1602,1352.875 1584,1352.875 1584,1342.875 L1584,1316.875 " fill="#FEFECE" filter="url(#f1k4rqxzmx1g3m)" style="stroke: #000000; stroke-width: 1.5;"/><path d="M1584,1316.875 C1584,1326.875 1602,1326.875 1602,1326.875 C1602,1326.875 1620,1326.875 1620,1316.875 " fill="none" style="stroke: #000000; stroke-width: 1.5;"/><rect fill="#FFFFFF" filter="url(#f1k4rqxzmx1g3m)" height="1148.8516" style="stroke: #A80036; stroke-width: 1.0;" width="10" x="87" y="125.7266"/><rect fill="#FFFFFF" filter="url(#f1k4rqxzmx1g3m)" height="1103.5859" style="stroke: #A80036; stroke-width: 1.0;" width="10" x="712" y="170.9922"/><rect fill="#FFFFFF" filter="url(#f1k4rqxzmx1g3m)" height="1082.4531" style="stroke: #A80036; stroke-width: 1.0;" width="10" x="943" y="200.125"/><rect fill="#FFFFFF" filter="url(#f1k4rqxzmx1g3m)" height="135.6641" style="stroke: #A80036; stroke-width: 1.0;" width="10" x="1276" y="310.6563"/><rect fill="#FFFFFF" filter="url(#f1k4rqxzmx1g3m)" height="135.6641" style="stroke: #A80036; stroke-width: 1.0;" width="10" x="1276" y="678.4531"/><rect fill="#FFFFFF" filter="url(#f1k4rqxzmx1g3m)" height="77.3984" style="stroke: #A80036; stroke-width: 1.0;" width="10" x="1597" y="339.7891"/><rect fill="#FFFFFF" filter="url(#f1k4rqxzmx1g3m)" height="77.3984" style="stroke: #A80036; stroke-width: 1.0;" width="10" x="1597" y="707.5859"/><path d="M13,132.7266 L234,132.7266 L234,139.7266 L224,149.7266 L13,149.7266 L13,132.7266 " fill="#EEEEEE" style="stroke: #000000; stroke-width: 1.0;"/><rect fill="none" height="1141.8516" style="stroke: #000000; stroke-width: 2.0;" width="1683" x="13" y="132.7266"/><text fill="#000000" font-family="sans-serif" font-size="13" font-weight="bold" lengthAdjust="spacingAndGlyphs" textLength="176" x="28" y="145.7935">Get Paritipant Positions</text><polygon fill="#A80036" points="700,166.9922,710,170.9922,700,174.9922,704,170.9922" style="stroke: #A80036; stroke-width: 1.0;"/><line style="stroke: #A80036; stroke-width: 1.0;" x1="97" x2="706" y1="170.9922" y2="170.9922"/><text fill="#000000" font-family="sans-serif" font-size="13" font-weight="bold" lengthAdjust="spacingAndGlyphs" textLength="9" x="104" y="165.9263">1</text><text fill="#000000" font-family="sans-serif" font-size="13" lengthAdjust="spacingAndGlyphs" textLength="583" x="117" y="165.9263">Request to get positions - GET - /participants/{name}/positions?currency={currencyValue}</text><polygon fill="#A80036" points="931,196.125,941,200.125,931,204.125,935,200.125" style="stroke: #A80036; stroke-width: 1.0;"/><line style="stroke: #A80036; stroke-width: 1.0;" x1="722" x2="937" y1="200.125" y2="200.125"/><text fill="#000000" font-family="sans-serif" font-size="13" font-weight="bold" lengthAdjust="spacingAndGlyphs" textLength="9" x="729" y="195.0591">2</text><text fill="#000000" font-family="sans-serif" font-size="13" lengthAdjust="spacingAndGlyphs" textLength="170" x="742" y="195.0591">Fetch Limits for Participant</text><line style="stroke: #A80036; stroke-width: 1.0;" x1="953" x2="995" y1="229.2578" y2="229.2578"/><line style="stroke: #A80036; stroke-width: 1.0;" x1="995" x2="995" y1="229.2578" y2="242.2578"/><line style="stroke: #A80036; stroke-width: 1.0;" x1="954" x2="995" y1="242.2578" y2="242.2578"/><polygon fill="#A80036" points="964,238.2578,954,242.2578,964,246.2578,960,242.2578" style="stroke: #A80036; stroke-width: 1.0;"/><text fill="#000000" font-family="sans-serif" font-size="13" font-weight="bold" lengthAdjust="spacingAndGlyphs" textLength="9" x="960" y="224.1919">3</text><text fill="#000000" font-family="sans-serif" font-size="13" lengthAdjust="spacingAndGlyphs" textLength="235" x="973" y="224.1919">check if "currency" parameter is sent</text><path d="M23,257.2578 L87,257.2578 L87,264.2578 L77,274.2578 L23,274.2578 L23,257.2578 " fill="#EEEEEE" style="stroke: #000000; stroke-width: 1.0;"/><rect fill="none" height="1010.3203" style="stroke: #000000; stroke-width: 2.0;" width="1663" x="23" y="257.2578"/><text fill="#000000" font-family="sans-serif" font-size="13" font-weight="bold" lengthAdjust="spacingAndGlyphs" textLength="19" x="38" y="270.3247">alt</text><text fill="#000000" font-family="sans-serif" font-size="11" font-weight="bold" lengthAdjust="spacingAndGlyphs" textLength="293" x="102" y="269.4683">[Check if "currency" parameter is sent (Sent)]</text><polygon fill="#A80036" points="1264,306.6563,1274,310.6563,1264,314.6563,1268,310.6563" style="stroke: #A80036; stroke-width: 1.0;"/><line style="stroke: #A80036; stroke-width: 1.0;" x1="953" x2="1270" y1="310.6563" y2="310.6563"/><text fill="#000000" font-family="sans-serif" font-size="13" font-weight="bold" lengthAdjust="spacingAndGlyphs" textLength="9" x="960" y="298.0239">4</text><text fill="#000000" font-family="sans-serif" font-size="13" lengthAdjust="spacingAndGlyphs" textLength="256" x="973" y="290.4575">Fetch Participant position for currency id</text><text fill="#FF0000" font-family="sans-serif" font-size="13" font-weight="bold" lengthAdjust="spacingAndGlyphs" textLength="82" x="973" y="305.5903">Error code:</text><text fill="#FF0000" font-family="sans-serif" font-size="13" lengthAdjust="spacingAndGlyphs" textLength="32" x="1059" y="305.5903">3000</text><polygon fill="#A80036" points="1585,335.7891,1595,339.7891,1585,343.7891,1589,339.7891" style="stroke: #A80036; stroke-width: 1.0;"/><line style="stroke: #A80036; stroke-width: 1.0;" x1="1286" x2="1591" y1="339.7891" y2="339.7891"/><text fill="#000000" font-family="sans-serif" font-size="13" font-weight="bold" lengthAdjust="spacingAndGlyphs" textLength="9" x="1293" y="334.7231">5</text><text fill="#000000" font-family="sans-serif" font-size="13" lengthAdjust="spacingAndGlyphs" textLength="256" x="1306" y="334.7231">Fetch Participant position for currency id</text><polygon fill="#FFFFE0" filter="url(#f1k4rqxzmx1g3m)" points="1537,352.7891,1666,352.7891,1676,371.7891,1666,390.7891,1537,390.7891,1527,371.7891,1537,352.7891" style="stroke: #A80036; stroke-width: 1.0;"/><text fill="#000000" font-family="sans-serif" font-size="13" lengthAdjust="spacingAndGlyphs" textLength="118" x="1539" y="368.856">participantPosition</text><text fill="#000000" font-family="sans-serif" font-size="13" lengthAdjust="spacingAndGlyphs" textLength="125" x="1539" y="383.9888">participantCurrency</text><polygon fill="#A80036" points="1297,413.1875,1287,417.1875,1297,421.1875,1293,417.1875" style="stroke: #A80036; stroke-width: 1.0;"/><line style="stroke: #A80036; stroke-width: 1.0; stroke-dasharray: 2.0,2.0;" x1="1291" x2="1601" y1="417.1875" y2="417.1875"/><text fill="#000000" font-family="sans-serif" font-size="13" font-weight="bold" lengthAdjust="spacingAndGlyphs" textLength="9" x="1303" y="412.1216">6</text><text fill="#000000" font-family="sans-serif" font-size="13" lengthAdjust="spacingAndGlyphs" textLength="186" x="1316" y="412.1216">Retrieved Participant position</text><polygon fill="#A80036" points="964,442.3203,954,446.3203,964,450.3203,960,446.3203" style="stroke: #A80036; stroke-width: 1.0;"/><line style="stroke: #A80036; stroke-width: 1.0; stroke-dasharray: 2.0,2.0;" x1="958" x2="1280" y1="446.3203" y2="446.3203"/><text fill="#000000" font-family="sans-serif" font-size="13" font-weight="bold" lengthAdjust="spacingAndGlyphs" textLength="9" x="970" y="441.2544">7</text><text fill="#000000" font-family="sans-serif" font-size="13" lengthAdjust="spacingAndGlyphs" textLength="263" x="983" y="441.2544">Return Participant position for currency id</text><polygon fill="#A80036" points="733,471.4531,723,475.4531,733,479.4531,729,475.4531" style="stroke: #A80036; stroke-width: 1.0;"/><line style="stroke: #A80036; stroke-width: 1.0;" x1="727" x2="942" y1="475.4531" y2="475.4531"/><text fill="#000000" font-family="sans-serif" font-size="13" font-weight="bold" lengthAdjust="spacingAndGlyphs" textLength="9" x="739" y="470.3872">8</text><text fill="#000000" font-family="sans-serif" font-size="13" lengthAdjust="spacingAndGlyphs" textLength="168" x="752" y="470.3872">Return participant position</text><path d="M727,488.4531 L727,588.4531 L948,588.4531 L948,498.4531 L938,488.4531 L727,488.4531 " fill="#FFFF00" filter="url(#f1k4rqxzmx1g3m)" style="stroke: #A80036; stroke-width: 1.0;"/><path d="M938,488.4531 L938,498.4531 L948,498.4531 L938,488.4531 " fill="#FFFF00" style="stroke: #A80036; stroke-width: 1.0;"/><text fill="#000000" font-family="sans-serif" font-size="13" lengthAdjust="spacingAndGlyphs" textLength="61" x="733" y="505.52">Message:</text><text fill="#000000" font-family="sans-serif" font-size="13" lengthAdjust="spacingAndGlyphs" textLength="8" x="733" y="520.6528">{</text><text fill="#000000" font-family="sans-serif" font-size="13" lengthAdjust="spacingAndGlyphs" textLength="155" x="749" y="535.7856">currency: &lt;currencyId&gt;,</text><text fill="#000000" font-family="sans-serif" font-size="13" lengthAdjust="spacingAndGlyphs" textLength="154" x="749" y="550.9185">value: &lt;positionValue&gt;,</text><text fill="#000000" font-family="sans-serif" font-size="13" lengthAdjust="spacingAndGlyphs" textLength="184" x="749" y="566.0513">updatedTime: &lt;timestamp&gt;</text><text fill="#000000" font-family="sans-serif" font-size="13" lengthAdjust="spacingAndGlyphs" textLength="8" x="733" y="581.1841">}</text><polygon fill="#A80036" points="108,615.3828,98,619.3828,108,623.3828,104,619.3828" style="stroke: #A80036; stroke-width: 1.0;"/><line style="stroke: #A80036; stroke-width: 1.0;" x1="102" x2="711" y1="619.3828" y2="619.3828"/><text fill="#000000" font-family="sans-serif" font-size="13" font-weight="bold" lengthAdjust="spacingAndGlyphs" textLength="9" x="114" y="614.3169">9</text><text fill="#000000" font-family="sans-serif" font-size="13" lengthAdjust="spacingAndGlyphs" textLength="168" x="127" y="614.3169">Return participant position</text><line style="stroke: #000000; stroke-width: 1.0; stroke-dasharray: 2.0,2.0;" x1="23" x2="1686" y1="628.3828" y2="628.3828"/><text fill="#000000" font-family="sans-serif" font-size="11" font-weight="bold" lengthAdjust="spacingAndGlyphs" textLength="319" x="28" y="638.5933">[Check if "currency" parameter is sent (Not Sent)]</text><polygon fill="#A80036" points="1264,674.4531,1274,678.4531,1264,682.4531,1268,678.4531" style="stroke: #A80036; stroke-width: 1.0;"/><line style="stroke: #A80036; stroke-width: 1.0;" x1="953" x2="1270" y1="678.4531" y2="678.4531"/><text fill="#000000" font-family="sans-serif" font-size="13" font-weight="bold" lengthAdjust="spacingAndGlyphs" textLength="18" x="960" y="665.8208">10</text><text fill="#000000" font-family="sans-serif" font-size="13" lengthAdjust="spacingAndGlyphs" textLength="270" x="982" y="658.2544">Fetch Participant position for all currencies</text><text fill="#FF0000" font-family="sans-serif" font-size="13" font-weight="bold" lengthAdjust="spacingAndGlyphs" textLength="82" x="982" y="673.3872">Error code:</text><text fill="#FF0000" font-family="sans-serif" font-size="13" lengthAdjust="spacingAndGlyphs" textLength="32" x="1068" y="673.3872">3000</text><polygon fill="#A80036" points="1585,703.5859,1595,707.5859,1585,711.5859,1589,707.5859" style="stroke: #A80036; stroke-width: 1.0;"/><line style="stroke: #A80036; stroke-width: 1.0;" x1="1286" x2="1591" y1="707.5859" y2="707.5859"/><text fill="#000000" font-family="sans-serif" font-size="13" font-weight="bold" lengthAdjust="spacingAndGlyphs" textLength="18" x="1293" y="702.52">11</text><text fill="#000000" font-family="sans-serif" font-size="13" lengthAdjust="spacingAndGlyphs" textLength="270" x="1315" y="702.52">Fetch Participant position for all currencies</text><polygon fill="#FFFFE0" filter="url(#f1k4rqxzmx1g3m)" points="1537,720.5859,1666,720.5859,1676,739.5859,1666,758.5859,1537,758.5859,1527,739.5859,1537,720.5859" style="stroke: #A80036; stroke-width: 1.0;"/><text fill="#000000" font-family="sans-serif" font-size="13" lengthAdjust="spacingAndGlyphs" textLength="118" x="1539" y="736.6528">participantPosition</text><text fill="#000000" font-family="sans-serif" font-size="13" lengthAdjust="spacingAndGlyphs" textLength="125" x="1539" y="751.7856">participantCurrency</text><polygon fill="#A80036" points="1297,780.9844,1287,784.9844,1297,788.9844,1293,784.9844" style="stroke: #A80036; stroke-width: 1.0;"/><line style="stroke: #A80036; stroke-width: 1.0; stroke-dasharray: 2.0,2.0;" x1="1291" x2="1601" y1="784.9844" y2="784.9844"/><text fill="#000000" font-family="sans-serif" font-size="13" font-weight="bold" lengthAdjust="spacingAndGlyphs" textLength="18" x="1303" y="779.9185">12</text><text fill="#000000" font-family="sans-serif" font-size="13" lengthAdjust="spacingAndGlyphs" textLength="193" x="1325" y="779.9185">Retrieved Participant positions</text><polygon fill="#A80036" points="964,810.1172,954,814.1172,964,818.1172,960,814.1172" style="stroke: #A80036; stroke-width: 1.0;"/><line style="stroke: #A80036; stroke-width: 1.0; stroke-dasharray: 2.0,2.0;" x1="958" x2="1280" y1="814.1172" y2="814.1172"/><text fill="#000000" font-family="sans-serif" font-size="13" font-weight="bold" lengthAdjust="spacingAndGlyphs" textLength="18" x="970" y="809.0513">13</text><text fill="#000000" font-family="sans-serif" font-size="13" lengthAdjust="spacingAndGlyphs" textLength="277" x="992" y="809.0513">Return Participant position for all currencies</text><polygon fill="#A80036" points="733,839.25,723,843.25,733,847.25,729,843.25" style="stroke: #A80036; stroke-width: 1.0;"/><line style="stroke: #A80036; stroke-width: 1.0;" x1="727" x2="942" y1="843.25" y2="843.25"/><text fill="#000000" font-family="sans-serif" font-size="13" font-weight="bold" lengthAdjust="spacingAndGlyphs" textLength="18" x="739" y="838.1841">14</text><text fill="#000000" font-family="sans-serif" font-size="13" lengthAdjust="spacingAndGlyphs" textLength="175" x="761" y="838.1841">Return participant positions</text><path d="M727,856.25 L727,987.25 L964,987.25 L964,866.25 L954,856.25 L727,856.25 " fill="#FFFF00" filter="url(#f1k4rqxzmx1g3m)" style="stroke: #A80036; stroke-width: 1.0;"/><path d="M954,856.25 L954,866.25 L964,866.25 L954,856.25 " fill="#FFFF00" style="stroke: #A80036; stroke-width: 1.0;"/><text fill="#000000" font-family="sans-serif" font-size="13" lengthAdjust="spacingAndGlyphs" textLength="61" x="733" y="873.3169">Message:</text><text fill="#000000" font-family="sans-serif" font-size="13" lengthAdjust="spacingAndGlyphs" textLength="5" x="733" y="888.4497">[</text><text fill="#000000" font-family="sans-serif" font-size="13" lengthAdjust="spacingAndGlyphs" textLength="8" x="749" y="903.5825">{</text><text fill="#000000" font-family="sans-serif" font-size="13" lengthAdjust="spacingAndGlyphs" textLength="155" x="765" y="918.7153">currency: &lt;currencyId&gt;,</text><text fill="#000000" font-family="sans-serif" font-size="13" lengthAdjust="spacingAndGlyphs" textLength="154" x="765" y="933.8481">value: &lt;positionValue&gt;,</text><text fill="#000000" font-family="sans-serif" font-size="13" lengthAdjust="spacingAndGlyphs" textLength="184" x="765" y="948.981">updatedTime: &lt;timestamp&gt;</text><text fill="#000000" font-family="sans-serif" font-size="13" lengthAdjust="spacingAndGlyphs" textLength="8" x="749" y="964.1138">}</text><text fill="#000000" font-family="sans-serif" font-size="13" lengthAdjust="spacingAndGlyphs" textLength="5" x="733" y="979.2466">]</text><polygon fill="#A80036" points="108,1013.4453,98,1017.4453,108,1021.4453,104,1017.4453" style="stroke: #A80036; stroke-width: 1.0;"/><line style="stroke: #A80036; stroke-width: 1.0;" x1="102" x2="711" y1="1017.4453" y2="1017.4453"/><text fill="#000000" font-family="sans-serif" font-size="13" font-weight="bold" lengthAdjust="spacingAndGlyphs" textLength="18" x="114" y="1012.3794">15</text><text fill="#000000" font-family="sans-serif" font-size="13" lengthAdjust="spacingAndGlyphs" textLength="175" x="136" y="1012.3794">Return participant positions</text><line style="stroke: #000000; stroke-width: 1.0; stroke-dasharray: 2.0,2.0;" x1="23" x2="1686" y1="1026.4453" y2="1026.4453"/><text fill="#000000" font-family="sans-serif" font-size="11" font-weight="bold" lengthAdjust="spacingAndGlyphs" textLength="41" x="28" y="1036.6558">[Error]</text><polygon fill="#A80036" points="733,1057.3828,723,1061.3828,733,1065.3828,729,1061.3828" style="stroke: #A80036; stroke-width: 1.0;"/><line style="stroke: #A80036; stroke-width: 1.0;" x1="727" x2="942" y1="1061.3828" y2="1061.3828"/><text fill="#000000" font-family="sans-serif" font-size="13" font-weight="bold" lengthAdjust="spacingAndGlyphs" textLength="18" x="739" y="1056.3169">16</text><text fill="#000000" font-family="sans-serif" font-size="13" lengthAdjust="spacingAndGlyphs" textLength="77" x="761" y="1056.3169">Return error</text><path d="M727,1074.3828 L727,1099.3828 L784,1099.3828 L784,1084.3828 L774,1074.3828 L727,1074.3828 " fill="#FF0000" filter="url(#f1k4rqxzmx1g3m)" style="stroke: #A80036; stroke-width: 1.0;"/><path d="M774,1074.3828 L774,1084.3828 L784,1084.3828 L774,1074.3828 " fill="#FF0000" style="stroke: #A80036; stroke-width: 1.0;"/><text fill="#000000" font-family="sans-serif" font-size="13" lengthAdjust="spacingAndGlyphs" textLength="36" x="733" y="1091.4497">Error!</text><path d="M727,1113.5156 L727,1228.5156 L972,1228.5156 L972,1123.5156 L962,1113.5156 L727,1113.5156 " fill="#FFFF00" filter="url(#f1k4rqxzmx1g3m)" style="stroke: #A80036; stroke-width: 1.0;"/><path d="M962,1113.5156 L962,1123.5156 L972,1123.5156 L962,1113.5156 " fill="#FFFF00" style="stroke: #A80036; stroke-width: 1.0;"/><text fill="#000000" font-family="sans-serif" font-size="13" lengthAdjust="spacingAndGlyphs" textLength="61" x="733" y="1130.5825">Message:</text><text fill="#000000" font-family="sans-serif" font-size="13" lengthAdjust="spacingAndGlyphs" textLength="8" x="749" y="1145.7153">{</text><text fill="#000000" font-family="sans-serif" font-size="13" lengthAdjust="spacingAndGlyphs" textLength="130" x="765" y="1160.8481">"errorInformation": {</text><text fill="#000000" font-family="sans-serif" font-size="13" lengthAdjust="spacingAndGlyphs" textLength="176" x="781" y="1175.981">"errorCode": &lt;Error Code&gt;,</text><text fill="#000000" font-family="sans-serif" font-size="13" lengthAdjust="spacingAndGlyphs" textLength="173" x="781" y="1191.1138">"errorDescription": &lt;Msg&gt;,</text><text fill="#000000" font-family="sans-serif" font-size="13" lengthAdjust="spacingAndGlyphs" textLength="8" x="765" y="1206.2466">}</text><text fill="#000000" font-family="sans-serif" font-size="13" lengthAdjust="spacingAndGlyphs" textLength="8" x="749" y="1221.3794">}</text><polygon fill="#A80036" points="108,1255.5781,98,1259.5781,108,1263.5781,104,1259.5781" style="stroke: #A80036; stroke-width: 1.0;"/><line style="stroke: #A80036; stroke-width: 1.0;" x1="102" x2="711" y1="1259.5781" y2="1259.5781"/><text fill="#000000" font-family="sans-serif" font-size="13" font-weight="bold" lengthAdjust="spacingAndGlyphs" textLength="18" x="114" y="1254.5122">17</text><text fill="#000000" font-family="sans-serif" font-size="13" lengthAdjust="spacingAndGlyphs" textLength="42" x="136" y="1254.5122">Return</text><text fill="#FF0000" font-family="sans-serif" font-size="13" font-weight="bold" lengthAdjust="spacingAndGlyphs" textLength="82" x="182" y="1254.5122">Error code:</text><text fill="#FF0000" font-family="sans-serif" font-size="13" lengthAdjust="spacingAndGlyphs" textLength="32" x="268" y="1254.5122">3000</text><!--
@startuml
title 1.0.0 Get Participant Position

autonumber



entity "HUB OPERATOR" as OPERATOR
boundary "Central Service API" as CSAPI
control "Participant Handler" as PARTICIPANT_HANDLER
entity "Central Service API" as CSAPI
entity "Position Facade" as POSITION_DAO
database "Central Store" as DB

box "Central Services" #LightYellow
participant CSAPI
participant PARTICIPANT_HANDLER
participant POSITION_DAO
participant DB
end box


activate OPERATOR
group Get Paritipant Positions
    OPERATOR -> CSAPI: Request to get positions - GET - /participants/{name}/positions?currency={currencyValue}
    activate CSAPI
    CSAPI -> PARTICIPANT_HANDLER: Fetch Limits for Participant
    activate PARTICIPANT_HANDLER
    PARTICIPANT_HANDLER -> PARTICIPANT_HANDLER: check if "currency" parameter is sent
    alt Check if "currency" parameter is sent (Sent)
        PARTICIPANT_HANDLER ->POSITION_DAO: Fetch Participant position for currency id \n<color #FF0000><b>Error code:</b> 3000</color>

        activate POSITION_DAO
        POSITION_DAO ->DB: Fetch Participant position for currency id
        activate DB
        hnote over DB #lightyellow
            participantPosition
            participantCurrency
        end note
        DB - -> POSITION_DAO: Retrieved Participant position
        deactivate DB
        POSITION_DAO - ->PARTICIPANT_HANDLER: Return Participant position for currency id
        deactivate POSITION_DAO

        PARTICIPANT_HANDLER ->CSAPI: Return participant position
        note right of CSAPI #yellow
            Message:
            {
                currency: <currencyId>,
                value: <positionValue>,
                updatedTime: <timestamp>
            }
        end note

        CSAPI ->OPERATOR: Return participant position
    else Check if "currency" parameter is sent (Not Sent)
        PARTICIPANT_HANDLER ->POSITION_DAO: Fetch Participant position for all currencies \n<color #FF0000><b>Error code:</b> 3000</color>

        activate POSITION_DAO
        POSITION_DAO ->DB: Fetch Participant position for all currencies
        activate DB
        hnote over DB #lightyellow
            participantPosition
            participantCurrency
        end note
        DB - -> POSITION_DAO: Retrieved Participant positions
        deactivate DB
        POSITION_DAO - ->PARTICIPANT_HANDLER: Return Participant position for all currencies
        deactivate POSITION_DAO

        PARTICIPANT_HANDLER ->CSAPI: Return participant positions
        note right of CSAPI #yellow
            Message:
            [
                {
                    currency: <currencyId>,
                    value: <positionValue>,
                    updatedTime: <timestamp>
                }
            ]
        end note

        CSAPI ->OPERATOR: Return participant positions

    else Error
        PARTICIPANT_HANDLER ->CSAPI: Return error
            note right of CSAPI #red: Error!
            note right of CSAPI #yellow
            Message:
                {
                    "errorInformation": {
                        "errorCode": <Error Code>,
                        "errorDescription": <Msg>,
                    }
                }
            end note
        CSAPI ->OPERATOR: Return <color #FF0000><b>Error code:</b> 3000</color>
    end

    deactivate CSAPI
    deactivate OPERATOR
end

@enduml

PlantUML version 1.2018.03(Thu Apr 05 11:59:15 CDT 2018)
(GPL source distribution)
Java Runtime: OpenJDK Runtime Environment
JVM: OpenJDK 64-Bit Server VM
Java Version: 10.0.2+13-Ubuntu-1ubuntu0.18.04.1
Operating System: Linux
OS Version: 4.15.0-33-generic
Default Encoding: UTF-8
Language: en
Country: US
--></g></svg>